<!DOCTYPE svg PUBLIC "-//W3C//DTD SVG 20010904//EN" "http://www.w3.org/TR/2001/REC-SVG-20010904/DTD/svg10.dtd">
<svg version="1.0" xmlns="http://www.w3.org/2000/svg" width="355px" height="352px" viewBox="0 0 3550 3520" preserveAspectRatio="xMidYMid meet">
<g id="layer101" fill="#212121" stroke="none">
<path d="M697 2889 c-157 -83 -155 -388 3 -469 60 -30 80 -27 80 13 0 28 -5 36 -33 49 -52 25 -72 76 -72 178 0 98 22 148 75 170 25 10 30 18 30 46 0 29 -4 34 -22 34 -13 -1 -40 -10 -61 -21z"/>
<path d="M800 2877 c0 -29 5 -35 41 -51 40 -18 41 -18 65 5 28 26 19 44 -33 66 -55 23 -73 18 -73 -20z"/>
<path d="M1181 2896 c-33 -18 -50 -53 -51 -103 0 -72 63 -123 153 -123 23 0 27 4 27 30 0 27 -3 30 -33 30 -39 0 -67 25 -67 59 0 31 18 61 35 61 10 0 15 10 15 30 0 26 -4 30 -27 30 -16 -1 -39 -7 -52 -14z"/>
<path d="M1280 2884 c0 -16 10 -34 25 -46 24 -19 25 -24 25 -123 0 -136 -18 -157 -108 -120 -34 15 -38 15 -49 -1 -7 -10 -13 -23 -13 -29 0 -19 50 -37 115 -42 48 -3 66 0 92 16 41 26 53 69 53 194 0 54 5 107 10 118 8 13 7 25 0 39 -14 26 -26 25 -55 -4 -14 -14 -27 -20 -30 -15 -4 5 -19 16 -36 24 -29 15 -29 15 -29 -11z"/>
<path d="M1640 2646 l0 -266 45 0 45 0 -2 263 -3 262 -42 3 -43 3 0 -265z"/>
<path d="M1768 2899 c-12 -6 -18 -22 -18 -45 0 -31 2 -34 19 -24 52 27 105 -6 121 -76 18 -79 -24 -164 -81 -164 -15 0 -31 5 -34 10 -13 21 -25 9 -25 -25 0 -40 20 -55 75 -55 56 0 101 24 132 71 25 37 28 52 28 118 -1 90 -26 150 -78 181 -35 22 -110 26 -139 9z"/>
<path d="M2217 2899 c-40 -23 -47 -67 -47 -299 l0 -220 45 0 45 0 0 216 c0 129 4 223 10 235 7 12 21 19 40 19 27 0 30 3 30 30 0 30 -1 30 -52 30 -29 0 -61 -5 -71 -11z"/>
<path d="M2620 2899 c-142 -60 -147 -292 -8 -365 44 -23 58 -18 58 19 0 26 -6 36 -26 45 -48 23 -71 131 -39 191 26 52 85 61 167 27 11 -5 20 -1 28 14 10 19 8 26 -14 48 -20 21 -37 26 -83 29 -32 1 -69 -2 -83 -8z"/>
<path d="M2620 2715 l0 -35 75 0 c66 0 75 -2 75 -18 0 -20 -49 -72 -68 -72 -7 0 -12 -15 -12 -35 0 -41 13 -44 70 -15 48 25 77 64 91 128 19 81 17 82 -116 82 l-115 0 0 -35z"/>
<path d="M861 2496 c-6 -8 -23 -17 -36 -20 -21 -5 -25 -13 -25 -41 0 -40 17 -45 73 -22 54 23 61 39 28 71 -24 23 -30 25 -40 12z"/>
</g>
<g id="layer102" fill="#524d36" stroke="none">
<path d="M720 2900 c-11 -7 -6 -8 17 -4 30 6 32 4 36 -27 l4 -34 1 38 c2 32 -1 37 -20 37 -13 0 -30 -5 -38 -10z"/>
<path d="M1248 2880 c-3 -16 -1 -30 4 -30 4 0 8 14 8 30 0 17 -2 30 -4 30 -2 0 -6 -13 -8 -30z"/>
<path d="M2313 2903 c25 -7 21 -41 -5 -46 -20 -4 -19 -4 5 -6 24 -1 27 3 27 29 0 25 -4 30 -22 29 -17 -1 -19 -2 -5 -6z"/>
<path d="M662 2863 c-24 -24 -24 -25 -2 -8 42 33 44 35 37 35 -4 0 -19 -12 -35 -27z"/>
<path d="M1776 2842 c-3 -5 8 -6 25 -4 16 2 29 6 29 8 0 8 -49 4 -54 -4z"/>
<path d="M1861 2814 c13 -17 26 -30 28 -27 3 2 -8 16 -24 31 l-28 27 24 -31z"/>
<path d="M2749 2825 c19 -8 38 -12 43 -7 4 4 0 8 -10 9 -9 1 -28 4 -42 8 -15 4 -12 0 9 -10z"/>
<path d="M1131 2772 c-1 -29 59 -92 86 -92 12 1 8 5 -12 14 -36 16 -54 35 -65 73 -8 26 -8 26 -9 5z"/>
<path d="M1862 2619 c-12 -15 -35 -30 -50 -32 l-27 -4 26 -2 c16 0 35 9 54 29 16 16 27 31 24 34 -2 2 -14 -9 -27 -25z"/>
<path d="M1176 2602 c-2 -4 3 -8 12 -9 9 -1 28 -4 42 -8 16 -4 13 0 -9 9 -39 18 -38 18 -45 8z"/>
<path d="M1396 2586 c-8 -33 -38 -49 -106 -57 l-55 -6 50 -1 c57 -2 109 23 120 58 4 12 5 24 2 26 -2 3 -7 -6 -11 -20z"/>
<path d="M670 2584 c0 -10 5 -26 10 -34 8 -11 9 -7 4 15 -8 37 -14 45 -14 19z"/>
<path d="M2660 2559 c0 -29 -2 -31 -27 -25 -21 5 -24 4 -13 -4 32 -21 50 -12 50 25 0 19 -2 35 -5 35 -3 0 -5 -14 -5 -31z"/>
<path d="M2785 2564 c-18 -16 -22 -22 -9 -15 18 9 53 42 43 41 -2 -1 -17 -12 -34 -26z"/>
<path d="M1180 2545 c14 -8 32 -14 40 -14 8 0 0 6 -19 14 -42 19 -54 19 -21 0z"/>
<path d="M645 2462 c11 -13 29 -28 40 -34 21 -11 18 -8 -30 32 -29 24 -29 24 -10 2z"/>
<path d="M1475 1591 c-50 -22 -91 -69 -105 -119 -5 -20 -10 -137 -10 -260 l0 -223 -40 -38 -40 -38 0 -135 c0 -112 3 -137 15 -142 10 -3 15 -19 15 -46 l0 -40 74 0 73 0 7 39 c3 21 13 44 21 51 12 10 15 37 15 127 0 130 -14 174 -61 199 l-29 15 0 235 c0 196 3 242 16 270 45 95 191 99 251 7 17 -25 18 -67 23 -528 l5 -501 27 -41 c67 -102 221 -109 301 -14 41 49 47 90 47 329 l0 223 40 38 40 38 0 137 c0 112 -3 138 -15 142 -10 4 -15 20 -15 45 l0 39 -74 0 -73 0 -6 -36 c-3 -20 -11 -42 -18 -50 -8 -10 -12 -56 -10 -147 l1 -132 41 -37 40 -37 -3 -243 c-3 -225 -4 -245 -23 -270 -61 -81 -186 -77 -242 9 -17 25 -18 67 -23 528 l-5 501 -27 41 c-50 75 -149 102 -233 64z"/>
</g>
<g id="layer103" fill="#555451" stroke="none">
<path d="M747 2903 c16 -3 23 -13 26 -36 4 -31 4 -31 5 6 2 34 0 37 -25 36 -23 -1 -24 -2 -6 -6z"/>
<path d="M802 2873 c1 -37 1 -37 5 -6 3 23 10 33 26 36 18 4 17 5 -5 6 -26 1 -28 -2 -26 -36z"/>
<path d="M1282 2880 c0 -19 2 -27 5 -17 2 9 2 25 0 35 -3 9 -5 1 -5 -18z"/>
<path d="M1414 2894 c9 -8 16 -20 16 -26 0 -6 3 -9 6 -6 8 9 -14 48 -27 48 -6 0 -3 -7 5 -16z"/>
<path d="M1640 2646 l0 -266 45 0 45 0 -2 263 -3 262 -42 3 -43 3 0 -265z m80 -1 l0 -255 -35 0 -35 0 0 255 0 255 35 0 35 0 0 -255z"/>
<path d="M2318 2903 c21 -8 14 -41 -10 -46 -20 -4 -19 -4 5 -6 24 -1 27 3 27 29 0 22 -5 30 -17 29 -11 0 -13 -3 -5 -6z"/>
<path d="M2663 2903 c15 -2 39 -2 55 0 15 2 2 4 -28 4 -30 0 -43 -2 -27 -4z"/>
<path d="M889 2879 l33 -20 -23 -27 -24 -27 28 25 28 25 -26 22 c-14 13 -31 23 -38 23 -7 0 3 -9 22 -21z"/>
<path d="M1754 2886 c-3 -8 -4 -27 -2 -43 3 -23 5 -20 9 15 5 43 2 53 -7 28z"/>
<path d="M2577 2868 c-18 -18 -21 -23 -7 -12 14 12 34 26 45 32 11 6 14 12 7 12 -7 0 -27 -15 -45 -32z"/>
<path d="M2778 2872 c15 -15 29 -26 31 -25 6 4 -41 53 -50 53 -4 0 4 -13 19 -28z"/>
<path d="M1312 2835 c13 -16 18 -44 21 -120 l3 -100 2 101 c2 94 0 102 -20 120 -23 19 -23 19 -6 -1z"/>
<path d="M728 2829 c-10 -5 -23 -20 -29 -32 l-10 -22 18 21 c10 12 27 26 38 32 11 6 16 11 10 11 -5 0 -18 -4 -27 -10z"/>
<path d="M2172 2608 l-2 -228 45 0 45 0 -2 218 -3 217 -2 -212 -3 -213 -35 0 -35 0 -3 223 -2 222 -3 -227z"/>
<path d="M1414 2720 c0 -58 1 -81 3 -52 2 28 2 76 0 105 -2 28 -3 5 -3 -53z"/>
<path d="M2583 2720 c0 -25 2 -35 4 -22 2 12 2 32 0 45 -2 12 -4 2 -4 -23z"/>
<path d="M1172 2708 c16 -16 34 -28 41 -28 6 0 3 6 -8 12 -11 6 -29 18 -40 27 -12 9 -8 4 7 -11z"/>
<path d="M1273 2723 c41 -6 37 -40 -5 -46 -32 -4 -32 -4 5 -5 35 -2 37 0 37 28 0 27 -3 30 -32 29 -31 -2 -31 -2 -5 -6z"/>
<path d="M663 2655 c0 -22 2 -30 4 -17 2 12 2 30 0 40 -3 9 -5 -1 -4 -23z"/>
<path d="M2692 2683 c62 -3 78 -7 81 -21 3 -12 5 -11 6 6 1 21 -2 22 -81 20 l-83 -2 77 -3z"/>
<path d="M1962 2618 c-10 -30 -10 -31 3 -14 13 17 21 46 12 46 -1 0 -8 -15 -15 -32z"/>
<path d="M1750 2576 c0 -19 4 -37 8 -40 4 -2 6 11 4 31 -4 27 -1 34 8 28 9 -5 11 -4 6 3 -14 23 -26 12 -26 -22z"/>
<path d="M1387 2567 l-17 -32 20 24 c17 20 26 41 18 41 -2 0 -11 -15 -21 -33z"/>
<path d="M2540 2597 c0 -2 15 -16 33 -33 l32 -29 -29 33 c-28 30 -36 37 -36 29z"/>
<path d="M2660 2561 c0 -20 -6 -31 -17 -34 -14 -4 -12 -5 5 -6 19 -1 22 4 22 34 0 19 -2 35 -5 35 -3 0 -5 -13 -5 -29z"/>
<path d="M2690 2555 c0 -30 3 -35 23 -34 18 1 19 2 4 6 -15 4 -18 12 -15 34 3 16 1 29 -4 29 -4 0 -8 -16 -8 -35z"/>
<path d="M1911 2554 c-19 -13 -29 -24 -23 -24 6 0 24 11 39 25 35 31 28 31 -16 -1z"/>
<path d="M1263 2523 c15 -2 39 -2 55 0 15 2 2 4 -28 4 -30 0 -43 -2 -27 -4z"/>
<path d="M1803 2523 c15 -2 37 -2 50 0 12 2 0 4 -28 4 -27 0 -38 -2 -22 -4z"/>
<path d="M859 2493 c-12 -16 -12 -17 2 -6 13 11 20 9 39 -12 l22 -24 -33 -20 c-19 -12 -29 -21 -22 -21 7 0 24 10 38 23 l26 22 -29 28 c-27 26 -30 27 -43 10z"/>
<path d="M770 2439 c0 -30 -1 -31 -32 -25 -24 4 -29 3 -18 -4 8 -5 25 -10 38 -10 19 0 22 5 22 35 0 19 -2 35 -5 35 -3 0 -5 -14 -5 -31z"/>
<path d="M802 2438 c-2 -35 0 -38 26 -37 22 1 23 2 5 6 -16 3 -23 13 -26 36 -4 31 -4 31 -5 -5z"/>
<path d="M1475 1591 c-50 -22 -91 -69 -105 -119 -5 -20 -10 -137 -10 -260 l0 -223 -40 -38 -40 -38 0 -135 c0 -112 3 -137 15 -142 10 -3 15 -19 15 -46 l0 -40 74 0 73 0 7 39 c3 21 13 44 21 51 12 10 15 37 15 127 0 130 -14 174 -61 199 l-29 15 0 235 c0 196 3 242 16 270 45 95 191 99 251 7 17 -25 18 -67 23 -528 l5 -501 27 -41 c67 -102 221 -109 301 -14 41 49 47 90 47 329 l0 223 40 38 40 38 0 137 c0 112 -3 138 -15 142 -10 4 -15 20 -15 45 l0 39 -74 0 -73 0 -6 -36 c-3 -20 -11 -42 -18 -50 -8 -10 -12 -56 -10 -147 l1 -132 41 -37 40 -37 -3 -243 c-3 -225 -4 -245 -23 -270 -61 -81 -186 -77 -242 9 -17 25 -18 67 -23 528 l-5 501 -27 41 c-50 75 -149 102 -233 64z m-75 -591 c0 -11 -7 -20 -15 -20 -8 0 -15 9 -15 20 0 11 7 20 15 20 8 0 15 -9 15 -20z m670 -55 c0 -16 -6 -25 -15 -25 -9 0 -15 9 -15 25 0 16 6 25 15 25 9 0 15 -9 15 -25z"/>
</g>
<g id="layer104" fill="#a3976a" stroke="none">
<path d="M1561 1600 c71 -9 114 -34 145 -85 13 -22 24 -35 24 -30 0 6 -11 27 -25 47 -31 46 -97 78 -156 77 -44 -2 -44 -2 12 -9z"/>
<path d="M1430 1564 c-31 -27 -60 -73 -60 -96 0 -7 9 5 19 28 10 22 34 53 52 67 19 15 31 27 27 27 -3 0 -20 -12 -38 -26z"/>
<path d="M1540 1563 c60 -6 77 -12 112 -40 27 -23 30 -23 13 -4 -30 35 -69 51 -117 49 -39 -1 -40 -2 -8 -5z"/>
<path d="M1451 1531 c-17 -16 -31 -33 -31 -38 0 -4 7 1 15 11 8 11 27 28 42 38 16 10 23 18 17 18 -7 0 -26 -13 -43 -29z"/>
<path d="M1406 1464 c-3 -9 -6 -121 -6 -250 0 -201 -2 -234 -15 -234 -13 0 -15 34 -17 238 l-3 237 -2 -233 -3 -233 -40 -38 -40 -38 0 -135 c0 -112 3 -137 15 -142 10 -3 15 -19 15 -46 l0 -40 74 0 73 0 7 39 c3 21 13 44 21 51 12 10 15 37 15 127 0 130 -14 174 -62 199 l-29 15 3 250 c2 137 2 249 2 249 -1 0 -5 -7 -8 -16z"/>
<path d="M1735 1000 c0 -261 1 -368 2 -238 2 131 2 345 0 475 -1 131 -2 24 -2 -237z"/>
<path d="M1705 950 c0 -261 1 -368 2 -238 2 131 2 345 0 475 -1 131 -2 24 -2 -237z"/>
<path d="M1977 1364 c-3 -20 -11 -42 -18 -50 -8 -10 -12 -56 -10 -147 l1 -132 41 -37 40 -37 -3 -244 c-2 -135 0 -240 4 -234 4 7 8 119 8 250 0 204 2 237 15 237 13 0 15 -34 17 -237 l3 -238 2 233 3 233 40 38 40 38 0 137 c0 112 -3 138 -15 142 -10 4 -15 20 -15 45 l0 39 -74 0 -73 0 -6 -36z"/>
<path d="M2051 455 c-6 -19 -29 -49 -49 -66 -20 -17 -27 -26 -16 -20 27 13 70 64 79 92 12 35 0 30 -14 -6z"/>
<path d="M1710 465 c0 -6 11 -27 25 -47 31 -46 97 -78 156 -77 44 2 44 2 -12 9 -71 9 -114 34 -145 85 -13 22 -24 35 -24 30z"/>
<path d="M1998 442 c-7 -10 -24 -26 -38 -35 -13 -9 -21 -17 -17 -17 15 0 58 33 68 51 12 24 4 25 -13 1z"/>
<path d="M1775 431 c30 -35 69 -51 117 -49 39 1 40 2 8 5 -60 6 -77 12 -112 40 -27 23 -30 23 -13 4z"/>
</g>
<g id="layer105" fill="#fca12e" stroke="none">
<path d="M1977 1364 c-3 -20 -11 -42 -18 -50 -8 -10 -12 -56 -10 -147 l2 -132 33 -31 c28 -27 39 -31 77 -28 34 2 50 10 72 34 27 30 27 32 27 165 0 111 -3 137 -15 141 -10 4 -15 20 -15 45 l0 39 -74 0 -73 0 -6 -36z m111 -51 c-21 -2 -55 -2 -75 0 -21 2 -4 4 37 4 41 0 58 -2 38 -4z"/>
<path d="M1314 946 l-34 -34 0 -135 c0 -111 3 -136 15 -141 10 -3 15 -19 15 -46 l0 -40 74 0 73 0 7 39 c3 21 13 44 21 51 22 19 21 229 -1 276 -34 71 -115 85 -170 30z"/>
</g>
<g id="layer106" fill="#9d9c95" stroke="none">
<path d="M773 2875 c0 -22 2 -30 4 -17 2 12 2 30 0 40 -3 9 -5 -1 -4 -23z"/>
<path d="M1252 2880 c0 -19 2 -27 5 -17 2 9 2 25 0 35 -3 9 -5 1 -5 -18z"/>
<path d="M1642 2643 l3 -268 2 263 3 262 35 0 35 0 3 -262 3 -263 -1 265 0 265 -42 3 -43 3 2 -268z"/>
<path d="M2330 2886 c0 -15 -7 -26 -17 -29 -14 -4 -12 -5 5 -6 18 -1 22 4 22 29 0 17 -2 30 -5 30 -3 0 -5 -11 -5 -24z"/>
<path d="M1312 2835 c13 -15 18 -44 21 -110 l3 -90 2 91 c2 83 0 92 -20 110 -23 19 -23 19 -6 -1z"/>
<path d="M2174 2605 c0 -126 2 -177 3 -112 2 65 2 168 0 230 -1 62 -3 9 -3 -118z"/>
<path d="M1983 2710 c0 -30 2 -43 4 -27 2 15 2 39 0 55 -2 15 -4 2 -4 -28z"/>
<path d="M2734 2743 l115 -4 4 -32 c5 -31 5 -31 3 3 l-1 35 -118 0 -117 1 114 -3z"/>
<path d="M583 2650 c0 -36 2 -50 4 -32 2 17 2 47 0 65 -2 17 -4 3 -4 -33z"/>
<path d="M2690 2683 c42 -2 78 -9 83 -16 6 -8 7 -8 4 3 -3 12 -21 15 -83 16 l-79 0 75 -3z"/>
<path d="M1258 2673 c12 -2 30 -2 40 0 9 3 -1 5 -23 4 -22 0 -30 -2 -17 -4z"/>
<path d="M1412 2650 c0 -19 2 -27 5 -17 2 9 2 25 0 35 -3 9 -5 1 -5 -18z"/>
<path d="M2693 2555 c0 -22 2 -30 4 -17 2 12 2 30 0 40 -3 9 -5 -1 -4 -23z"/>
<path d="M773 2435 c0 -22 2 -30 4 -17 2 12 2 30 0 40 -3 9 -5 -1 -4 -23z"/>
<path d="M1538 1563 c12 -2 30 -2 40 0 9 3 -1 5 -23 4 -22 0 -30 -2 -17 -4z"/>
<path d="M1621 1548 c2 -2 18 -14 34 -28 l30 -25 -24 28 c-14 15 -29 27 -34 27 -6 0 -8 -1 -6 -2z"/>
<path d="M1404 1230 c0 -113 2 -159 3 -102 2 56 2 148 0 205 -1 56 -3 10 -3 -103z"/>
<path d="M1977 1364 c-3 -20 -11 -42 -18 -50 -8 -10 -11 -56 -10 -147 2 -131 2 -132 31 -161 23 -24 37 -29 76 -29 41 0 52 5 76 32 28 31 28 32 28 166 0 111 -3 137 -15 141 -10 4 -15 20 -15 45 l0 39 -74 0 -73 0 -6 -36z m111 -51 c-21 -2 -55 -2 -75 0 -21 2 -4 4 37 4 41 0 58 -2 38 -4z"/>
<path d="M1308 595 l4 -45 72 0 71 0 11 45 10 45 -85 0 -86 0 3 -45z"/>
<path d="M1868 383 c12 -2 30 -2 40 0 9 3 -1 5 -23 4 -22 0 -30 -2 -17 -4z"/>
</g>
<g id="layer107" fill="#f7cd0c" stroke="none">
<path d="M930 1925 l0 -35 790 0 790 0 0 35 0 35 -790 0 -790 0 0 -35z"/>
</g>
<g id="layer108" fill="#7ebbb3" stroke="none">
<path d="M1977 1364 c-3 -20 -11 -42 -18 -50 -8 -10 -11 -56 -10 -147 2 -131 2 -132 31 -161 23 -24 37 -29 76 -29 41 0 52 5 76 32 28 31 28 32 28 166 0 111 -3 137 -15 141 -10 4 -15 20 -15 45 l0 39 -74 0 -73 0 -6 -36z m143 -34 c0 -18 -7 -20 -70 -20 -52 0 -70 3 -70 13 0 23 11 27 77 27 56 0 63 -2 63 -20z"/>
</g>
<g id="layer109" fill="#e7da9a" stroke="none">
<path d="M1322 1953 c219 -2 577 -2 795 0 219 1 40 2 -397 2 -437 0 -616 -1 -398 -2z"/>
<path d="M1533 1563 c9 -2 25 -2 35 0 9 3 1 5 -18 5 -19 0 -27 -2 -17 -5z"/>
<path d="M1364 1235 c0 -121 2 -169 3 -107 2 62 2 161 0 220 -1 59 -3 8 -3 -113z"/>
<path d="M1977 1364 c-3 -20 -11 -42 -18 -50 -8 -10 -11 -56 -10 -147 2 -131 2 -132 31 -161 23 -24 37 -29 76 -29 41 0 52 5 76 32 15 17 28 41 27 54 -1 19 -2 18 -9 -6 -10 -34 -26 -54 -54 -69 -18 -9 -18 -7 4 16 24 27 25 33 25 159 l0 132 -88 0 c-60 0 -83 3 -74 10 7 6 16 18 20 28 5 14 19 17 72 17 58 0 65 -2 65 -20 0 -11 6 -20 14 -20 8 0 17 -6 19 -12 4 -10 6 -10 6 0 1 7 -6 15 -14 18 -10 4 -15 20 -15 45 l0 39 -74 0 -73 0 -6 -36z"/>
<path d="M2074 710 c0 -118 2 -167 3 -108 2 60 2 156 0 216 -1 59 -3 10 -3 -108z"/>
<path d="M1494 770 c0 -69 1 -97 3 -62 2 34 2 90 0 125 -2 34 -3 6 -3 -63z"/>
<path d="M1308 595 l4 -45 72 0 71 0 11 45 c8 34 7 45 -2 45 -6 0 -11 -8 -10 -17 1 -15 -9 -18 -66 -21 -63 -3 -68 -1 -68 18 0 11 -3 20 -8 20 -4 0 -6 -20 -4 -45z"/>
<path d="M1873 383 c9 -2 25 -2 35 0 9 3 1 5 -18 5 -19 0 -27 -2 -17 -5z"/>
</g>
<g id="layer110" fill="#cad4bf" stroke="none">
<path d="M2678 2743 c34 -2 88 -2 120 0 31 2 3 3 -63 3 -66 0 -92 -1 -57 -3z"/>
<path d="M1984 1378 c1 -21 6 -23 67 -26 64 -3 67 -2 71 23 5 25 5 25 -67 25 -69 0 -72 -1 -71 -22z"/>
<path d="M1951 1170 l-2 -135 29 -28 c25 -24 37 -28 75 -26 26 2 44 5 42 8 -3 2 3 13 12 24 15 16 18 39 18 151 l0 131 -87 5 -86 5 -1 -135z"/>
<path d="M1460 615 c0 -12 -14 -15 -69 -15 -65 0 -69 -1 -73 -25 -5 -25 -5 -25 67 -25 50 0 72 4 72 13 0 6 4 24 8 40 4 15 4 27 1 27 -3 0 -6 -7 -6 -15z"/>
</g>
<g id="layer111" fill="#a6e2e1" stroke="none">
<path d="M1954 1275 c-4 -8 -5 -64 -2 -124 3 -98 6 -112 26 -134 26 -28 68 -40 94 -26 45 24 48 35 48 170 l0 129 -80 0 c-63 0 -82 -3 -86 -15z"/>
</g>


</svg>