<?xml version="1.0" encoding="UTF-8" standalone="no"?>
<svg
   xmlns:dc="http://purl.org/dc/elements/1.1/"
   xmlns:cc="http://creativecommons.org/ns#"
   xmlns:rdf="http://www.w3.org/1999/02/22-rdf-syntax-ns#"
   xmlns:svg="http://www.w3.org/2000/svg"
   xmlns="http://www.w3.org/2000/svg"
   xmlns:sodipodi="http://sodipodi.sourceforge.net/DTD/sodipodi-0.dtd"
   xmlns:inkscape="http://www.inkscape.org/namespaces/inkscape"
   inkscape:version="1.0 (4035a4f, 2020-05-01)"
   sodipodi:docname="CableWires.svg"
   id="svg528"
   preserveAspectRatio="xMidYMid meet"
   viewBox="0 0 1260 1840"
   height="184"
   width="126"
   version="1.0">
  <metadata
     id="metadata534">
    <rdf:RDF>
      <cc:Work
         rdf:about="">
        <dc:format>image/svg+xml</dc:format>
        <dc:type
           rdf:resource="http://purl.org/dc/dcmitype/StillImage" />
        <dc:title></dc:title>
      </cc:Work>
    </rdf:RDF>
  </metadata>
  <defs
     id="defs532" />
  <sodipodi:namedview
     inkscape:current-layer="svg528"
     inkscape:window-maximized="0"
     inkscape:window-y="0"
     inkscape:window-x="0"
     inkscape:cy="165.49254"
     inkscape:cx="138.62239"
     inkscape:zoom="1.9034091"
     showgrid="false"
     id="namedview530"
     inkscape:window-height="878"
     inkscape:window-width="1402"
     inkscape:pageshadow="2"
     inkscape:pageopacity="0"
     guidetolerance="10"
     gridtolerance="10"
     objecttolerance="10"
     borderopacity="1"
     bordercolor="#666666"
     pagecolor="#ffffff" />
  <g
     stroke="none"
     fill="#212121"
     id="layer101">
    <path
       d="m 69.314453,252.43359 c -0.179052,0.002 -0.290443,0.005 -0.478515,0.006 0.05506,0.0114 0.06858,0.0141 0.123046,0.0254 0.107542,-0.01 0.250101,-0.0213 0.355469,-0.0312 z"
       transform="scale(10)"
       style="stroke-width:0.1"
       id="path299" />
    <path
       d="m 91.007812,246.78516 c -0.0069,0.006 -0.01108,0.0377 -0.01172,0.0996 -0.0018,0.17726 0.01563,0.35411 0.01953,0.53125 0.03066,-0.0365 0.07612,-0.0792 0.105469,-0.11524 -0.04454,-0.2733 -0.09261,-0.5346 -0.113282,-0.51562 z"
       transform="scale(10)"
       style="stroke-width:0.1"
       id="path317" />
  </g>
  <g
     transform="translate(-1071.7612,-89.313433)"
     stroke="none"
     fill="#524d36"
     id="layer102">
    <path
       id="path352"
       d="m 1475,1591 c -50,-22 -91,-69 -105,-119 -5,-20 -10,-137 -10,-260 V 989 l -40,-38 -40,-38 V 778 c 0,-112 3,-137 15,-142 10,-3 15,-19 15,-46 v -40 h 74 73 l 7,39 c 3,21 13,44 21,51 12,10 15,37 15,127 0,130 -14,174 -61,199 l -29,15 v 235 c 0,196 3,242 16,270 45,95 191,99 251,7 17,-25 18,-67 23,-528 l 5,-501 27,-41 c 67,-102 221,-109 301,-14 41,49 47,90 47,329 v 223 l 40,38 40,38 v 137 c 0,112 -3,138 -15,142 -10,4 -15,20 -15,45 v 39 h -74 -73 l -6,-36 c -3,-20 -11,-42 -18,-50 -8,-10 -12,-56 -10,-147 l 1,-132 41,-37 40,-37 -3,-243 c -3,-225 -4,-245 -23,-270 -61,-81 -186,-77 -242,9 -17,25 -18,67 -23,528 l -5,501 -27,41 c -50,75 -149,102 -233,64 z" />
  </g>
  <g
     transform="translate(-1071.7612,-89.313433)"
     stroke="none"
     fill="#555451"
     id="layer103">
    <path
       d="m 91.007812,246.78516 c -0.0069,0.006 -0.01108,0.0377 -0.01172,0.0996 -0.0022,0.20853 0.01591,0.41664 0.02148,0.625 l 0.123047,-0.11915 c -0.05136,-0.34344 -0.108573,-0.62772 -0.132813,-0.60546 z"
       transform="scale(10)"
       style="stroke-width:0.1"
       id="path413" />
    <path
       id="path419"
       d="m 1475,1591 c -50,-22 -91,-69 -105,-119 -5,-20 -10,-137 -10,-260 V 989 l -40,-38 -40,-38 V 778 c 0,-112 3,-137 15,-142 10,-3 15,-19 15,-46 v -40 h 74 73 l 7,39 c 3,21 13,44 21,51 12,10 15,37 15,127 0,130 -14,174 -61,199 l -29,15 v 235 c 0,196 3,242 16,270 45,95 191,99 251,7 17,-25 18,-67 23,-528 l 5,-501 27,-41 c 67,-102 221,-109 301,-14 41,49 47,90 47,329 v 223 l 40,38 40,38 v 137 c 0,112 -3,138 -15,142 -10,4 -15,20 -15,45 v 39 h -74 -73 l -6,-36 c -3,-20 -11,-42 -18,-50 -8,-10 -12,-56 -10,-147 l 1,-132 41,-37 40,-37 -3,-243 c -3,-225 -4,-245 -23,-270 -61,-81 -186,-77 -242,9 -17,25 -18,67 -23,528 l -5,501 -27,41 c -50,75 -149,102 -233,64 z m -75,-591 c 0,-11 -7,-20 -15,-20 -8,0 -15,9 -15,20 0,11 7,20 15,20 8,0 15,-9 15,-20 z m 670,-55 c 0,-16 -6,-25 -15,-25 -9,0 -15,9 -15,25 0,16 6,25 15,25 9,0 15,-9 15,-25 z" />
  </g>
  <g
     transform="translate(-1071.7612,-89.313433)"
     stroke="none"
     fill="#a3976a"
     id="layer104">
    <path
       id="path422"
       d="m 1561,1600 c 71,-9 114,-34 145,-85 13,-22 24,-35 24,-30 0,6 -11,27 -25,47 -31,46 -97,78 -156,77 -44,-2 -44,-2 12,-9 z" />
    <path
       id="path424"
       d="m 1430,1564 c -31,-27 -60,-73 -60,-96 0,-7 9,5 19,28 10,22 34,53 52,67 19,15 31,27 27,27 -3,0 -20,-12 -38,-26 z" />
    <path
       id="path426"
       d="m 1540,1563 c 60,-6 77,-12 112,-40 27,-23 30,-23 13,-4 -30,35 -69,51 -117,49 -39,-1 -40,-2 -8,-5 z" />
    <path
       id="path428"
       d="m 1451,1531 c -17,-16 -31,-33 -31,-38 0,-4 7,1 15,11 8,11 27,28 42,38 16,10 23,18 17,18 -7,0 -26,-13 -43,-29 z" />
    <path
       id="path430"
       d="m 1406,1464 c -3,-9 -6,-121 -6,-250 0,-201 -2,-234 -15,-234 -13,0 -15,34 -17,238 l -3,237 -2,-233 -3,-233 -40,-38 -40,-38 V 778 c 0,-112 3,-137 15,-142 10,-3 15,-19 15,-46 v -40 h 74 73 l 7,39 c 3,21 13,44 21,51 12,10 15,37 15,127 0,130 -14,174 -62,199 l -29,15 3,250 c 2,137 2,249 2,249 -1,0 -5,-7 -8,-16 z" />
    <path
       id="path432"
       d="m 1735,1000 c 0,-261 1,-368 2,-238 2,131 2,345 0,475 -1,131 -2,24 -2,-237 z" />
    <path
       id="path434"
       d="m 1705,950 c 0,-261 1,-368 2,-238 2,131 2,345 0,475 -1,131 -2,24 -2,-237 z" />
    <path
       id="path436"
       d="m 1977,1364 c -3,-20 -11,-42 -18,-50 -8,-10 -12,-56 -10,-147 l 1,-132 41,-37 40,-37 -3,-244 c -2,-135 0,-240 4,-234 4,7 8,119 8,250 0,204 2,237 15,237 13,0 15,-34 17,-237 l 3,-238 2,233 3,233 40,38 40,38 v 137 c 0,112 -3,138 -15,142 -10,4 -15,20 -15,45 v 39 h -74 -73 z" />
    <path
       id="path438"
       d="m 2051,455 c -6,-19 -29,-49 -49,-66 -20,-17 -27,-26 -16,-20 27,13 70,64 79,92 12,35 0,30 -14,-6 z" />
    <path
       id="path440"
       d="m 1710,465 c 0,-6 11,-27 25,-47 31,-46 97,-78 156,-77 44,2 44,2 -12,9 -71,9 -114,34 -145,85 -13,22 -24,35 -24,30 z" />
    <path
       id="path442"
       d="m 1998,442 c -7,-10 -24,-26 -38,-35 -13,-9 -21,-17 -17,-17 15,0 58,33 68,51 12,24 4,25 -13,1 z" />
    <path
       id="path444"
       d="m 1775,431 c 30,-35 69,-51 117,-49 39,1 40,2 8,5 -60,6 -77,12 -112,40 -27,23 -30,23 -13,4 z" />
  </g>
  <g
     transform="translate(-1071.7612,-89.313433)"
     stroke="none"
     fill="#fca12e"
     id="layer105">
    <path
       id="path447"
       d="m 1977,1364 c -3,-20 -11,-42 -18,-50 -8,-10 -12,-56 -10,-147 l 2,-132 33,-31 c 28,-27 39,-31 77,-28 34,2 50,10 72,34 27,30 27,32 27,165 0,111 -3,137 -15,141 -10,4 -15,20 -15,45 v 39 h -74 -73 z m 111,-51 c -21,-2 -55,-2 -75,0 -21,2 -4,4 37,4 41,0 58,-2 38,-4 z" />
    <path
       id="path449"
       d="m 1314,946 -34,-34 V 777 c 0,-111 3,-136 15,-141 10,-3 15,-19 15,-46 v -40 h 74 73 l 7,39 c 3,21 13,44 21,51 22,19 21,229 -1,276 -34,71 -115,85 -170,30 z" />
  </g>
  <g
     transform="translate(-1071.7612,-89.313433)"
     stroke="none"
     fill="#9d9c95"
     id="layer106">
    <path
       id="path480"
       d="m 1538,1563 c 12,-2 30,-2 40,0 9,3 -1,5 -23,4 -22,0 -30,-2 -17,-4 z" />
    <path
       id="path482"
       d="m 1621,1548 c 2,-2 18,-14 34,-28 l 30,-25 -24,28 c -14,15 -29,27 -34,27 -6,0 -8,-1 -6,-2 z" />
    <path
       id="path484"
       d="m 1404,1230 c 0,-113 2,-159 3,-102 2,56 2,148 0,205 -1,56 -3,10 -3,-103 z" />
    <path
       id="path486"
       d="m 1977,1364 c -3,-20 -11,-42 -18,-50 -8,-10 -11,-56 -10,-147 2,-131 2,-132 31,-161 23,-24 37,-29 76,-29 41,0 52,5 76,32 28,31 28,32 28,166 0,111 -3,137 -15,141 -10,4 -15,20 -15,45 v 39 h -74 -73 z m 111,-51 c -21,-2 -55,-2 -75,0 -21,2 -4,4 37,4 41,0 58,-2 38,-4 z" />
    <path
       id="path488"
       d="m 1308,595 4,-45 h 72 71 l 11,45 10,45 h -85 -86 z" />
    <path
       id="path490"
       d="m 1868,383 c 12,-2 30,-2 40,0 9,3 -1,5 -23,4 -22,0 -30,-2 -17,-4 z" />
  </g>
  <g
     stroke="none"
     fill="#f7cd0c"
     id="layer107">
    <path
       d="m 195.17969,189 c 0.0293,0.14761 0.0588,0.29358 0.0879,0.44336 0.44922,-0.14312 0.89891,-0.28418 1.34375,-0.44336 z"
       transform="scale(10)"
       style="stroke-width:0.1"
       id="path493" />
  </g>
  <g
     transform="translate(-1071.7612,-89.313433)"
     stroke="none"
     fill="#7ebbb3"
     id="layer108">
    <path
       id="path496"
       d="m 1977,1364 c -3,-20 -11,-42 -18,-50 -8,-10 -11,-56 -10,-147 2,-131 2,-132 31,-161 23,-24 37,-29 76,-29 41,0 52,5 76,32 28,31 28,32 28,166 0,111 -3,137 -15,141 -10,4 -15,20 -15,45 v 39 h -74 -73 z m 143,-34 c 0,-18 -7,-20 -70,-20 -52,0 -70,3 -70,13 0,23 11,27 77,27 56,0 63,-2 63,-20 z" />
  </g>
  <g
     transform="translate(-1071.7612,-89.313433)"
     stroke="none"
     fill="#e7da9a"
     id="layer109">
    <path
       id="path501"
       d="m 1533,1563 c 9,-2 25,-2 35,0 9,3 1,5 -18,5 -19,0 -27,-2 -17,-5 z" />
    <path
       id="path503"
       d="m 1364,1235 c 0,-121 2,-169 3,-107 2,62 2,161 0,220 -1,59 -3,8 -3,-113 z" />
    <path
       id="path505"
       d="m 1977,1364 c -3,-20 -11,-42 -18,-50 -8,-10 -11,-56 -10,-147 2,-131 2,-132 31,-161 23,-24 37,-29 76,-29 41,0 52,5 76,32 15,17 28,41 27,54 -1,19 -2,18 -9,-6 -10,-34 -26,-54 -54,-69 -18,-9 -18,-7 4,16 24,27 25,33 25,159 v 132 h -88 c -60,0 -83,3 -74,10 7,6 16,18 20,28 5,14 19,17 72,17 58,0 65,-2 65,-20 0,-11 6,-20 14,-20 8,0 17,-6 19,-12 4,-10 6,-10 6,0 1,7 -6,15 -14,18 -10,4 -15,20 -15,45 v 39 h -74 -73 z" />
    <path
       id="path507"
       d="m 2074,710 c 0,-118 2,-167 3,-108 2,60 2,156 0,216 -1,59 -3,10 -3,-108 z" />
    <path
       id="path509"
       d="m 1494,770 c 0,-69 1,-97 3,-62 2,34 2,90 0,125 -2,34 -3,6 -3,-63 z" />
    <path
       id="path511"
       d="m 1308,595 4,-45 h 72 71 l 11,45 c 8,34 7,45 -2,45 -6,0 -11,-8 -10,-17 1,-15 -9,-18 -66,-21 -63,-3 -68,-1 -68,18 0,11 -3,20 -8,20 -4,0 -6,-20 -4,-45 z" />
    <path
       id="path513"
       d="m 1873,383 c 9,-2 25,-2 35,0 9,3 1,5 -18,5 -19,0 -27,-2 -17,-5 z" />
  </g>
  <g
     transform="translate(-1071.7612,-89.313433)"
     stroke="none"
     fill="#cad4bf"
     id="layer110">
    <path
       id="path518"
       d="m 1984,1378 c 1,-21 6,-23 67,-26 64,-3 67,-2 71,23 5,25 5,25 -67,25 -69,0 -72,-1 -71,-22 z" />
    <path
       id="path520"
       d="m 1951,1170 -2,-135 29,-28 c 25,-24 37,-28 75,-26 26,2 44,5 42,8 -3,2 3,13 12,24 15,16 18,39 18,151 v 131 l -87,5 -86,5 z" />
    <path
       id="path522"
       d="m 1460,615 c 0,-12 -14,-15 -69,-15 -65,0 -69,-1 -73,-25 -5,-25 -5,-25 67,-25 50,0 72,4 72,13 0,6 4,24 8,40 4,15 4,27 1,27 -3,0 -6,-7 -6,-15 z" />
  </g>
  <g
     transform="translate(-1071.7612,-89.313433)"
     stroke="none"
     fill="#a6e2e1"
     id="layer111">
    <path
       id="path525"
       d="m 1954,1275 c -4,-8 -5,-64 -2,-124 3,-98 6,-112 26,-134 26,-28 68,-40 94,-26 45,24 48,35 48,170 v 129 h -80 c -63,0 -82,-3 -86,-15 z" />
  </g>
</svg>
